<mxfile host="app.diagrams.net" agent="Mozilla/5.0 (Windows NT 10.0; Win64; x64) AppleWebKit/537.36 (KHTML, like Gecko) Chrome/134.0.0.0 Safari/537.36 Edg/134.0.0.0" version="26.1.0">
  <diagram id="R2lEEEUBdFMjLlhIrx00" name="Page-1">
    <mxGraphModel dx="466" dy="687" grid="1" gridSize="10" guides="1" tooltips="1" connect="1" arrows="1" fold="1" page="1" pageScale="1" pageWidth="850" pageHeight="1100" math="0" shadow="0" extFonts="Permanent Marker^https://fonts.googleapis.com/css?family=Permanent+Marker">
      <root>
        <mxCell id="0" />
        <mxCell id="1" parent="0" />
        <mxCell id="f3NPworkl2Eo52ftp_1T-24" value="&lt;u&gt;A1&lt;/u&gt;" style="rounded=0;whiteSpace=wrap;html=1;movable=1;resizable=1;rotatable=1;deletable=1;editable=1;locked=0;connectable=1;" vertex="1" parent="1">
          <mxGeometry x="160" y="160" width="90" height="40" as="geometry" />
        </mxCell>
        <mxCell id="f3NPworkl2Eo52ftp_1T-25" value="A2" style="rounded=0;whiteSpace=wrap;html=1;movable=1;resizable=1;rotatable=1;deletable=1;editable=1;locked=0;connectable=1;" vertex="1" parent="1">
          <mxGeometry x="250" y="160" width="90" height="40" as="geometry" />
        </mxCell>
        <mxCell id="f3NPworkl2Eo52ftp_1T-26" value="E1" style="text;html=1;align=center;verticalAlign=middle;resizable=0;points=[];autosize=1;strokeColor=none;fillColor=none;" vertex="1" parent="1">
          <mxGeometry x="160" y="130" width="40" height="30" as="geometry" />
        </mxCell>
        <mxCell id="f3NPworkl2Eo52ftp_1T-27" value="&lt;u&gt;A4&lt;/u&gt;" style="rounded=0;whiteSpace=wrap;html=1;movable=1;resizable=1;rotatable=1;deletable=1;editable=1;locked=0;connectable=1;" vertex="1" parent="1">
          <mxGeometry x="160" y="240" width="90" height="40" as="geometry" />
        </mxCell>
        <mxCell id="f3NPworkl2Eo52ftp_1T-28" value="E2" style="text;html=1;align=center;verticalAlign=middle;resizable=0;points=[];autosize=1;strokeColor=none;fillColor=none;" vertex="1" parent="1">
          <mxGeometry x="160" y="210" width="40" height="30" as="geometry" />
        </mxCell>
        <mxCell id="f3NPworkl2Eo52ftp_1T-29" value="A5" style="rounded=0;whiteSpace=wrap;html=1;movable=1;resizable=1;rotatable=1;deletable=1;editable=1;locked=0;connectable=1;" vertex="1" parent="1">
          <mxGeometry x="250" y="240" width="90" height="40" as="geometry" />
        </mxCell>
        <mxCell id="f3NPworkl2Eo52ftp_1T-30" value="&lt;u&gt;A8&lt;/u&gt;" style="rounded=0;whiteSpace=wrap;html=1;movable=1;resizable=1;rotatable=1;deletable=1;editable=1;locked=0;connectable=1;" vertex="1" parent="1">
          <mxGeometry x="160" y="320" width="90" height="40" as="geometry" />
        </mxCell>
        <mxCell id="f3NPworkl2Eo52ftp_1T-31" value="A10" style="rounded=0;whiteSpace=wrap;html=1;movable=1;resizable=1;rotatable=1;deletable=1;editable=1;locked=0;connectable=1;" vertex="1" parent="1">
          <mxGeometry x="250" y="320" width="90" height="40" as="geometry" />
        </mxCell>
        <mxCell id="f3NPworkl2Eo52ftp_1T-32" value="E4" style="text;html=1;align=center;verticalAlign=middle;resizable=0;points=[];autosize=1;strokeColor=none;fillColor=none;" vertex="1" parent="1">
          <mxGeometry x="160" y="290" width="40" height="30" as="geometry" />
        </mxCell>
        <mxCell id="f3NPworkl2Eo52ftp_1T-33" value="E6" style="text;html=1;align=center;verticalAlign=middle;resizable=0;points=[];autosize=1;strokeColor=none;fillColor=none;" vertex="1" parent="1">
          <mxGeometry x="160" y="368" width="40" height="30" as="geometry" />
        </mxCell>
        <mxCell id="f3NPworkl2Eo52ftp_1T-34" value="&lt;u&gt;A18&lt;/u&gt;" style="rounded=0;whiteSpace=wrap;html=1;movable=1;resizable=1;rotatable=1;deletable=1;editable=1;locked=0;connectable=1;" vertex="1" parent="1">
          <mxGeometry x="160" y="398" width="90" height="40" as="geometry" />
        </mxCell>
        <mxCell id="f3NPworkl2Eo52ftp_1T-36" value="A11" style="rounded=0;whiteSpace=wrap;html=1;movable=1;resizable=1;rotatable=1;deletable=1;editable=1;locked=0;connectable=1;" vertex="1" parent="1">
          <mxGeometry x="340" y="320" width="90" height="40" as="geometry" />
        </mxCell>
        <mxCell id="f3NPworkl2Eo52ftp_1T-37" value="E3" style="text;html=1;align=center;verticalAlign=middle;resizable=0;points=[];autosize=1;strokeColor=none;fillColor=none;" vertex="1" parent="1">
          <mxGeometry x="160" y="448" width="40" height="30" as="geometry" />
        </mxCell>
        <mxCell id="f3NPworkl2Eo52ftp_1T-38" value="&lt;u&gt;A4&lt;/u&gt;" style="rounded=0;whiteSpace=wrap;html=1;movable=1;resizable=1;rotatable=1;deletable=1;editable=1;locked=0;connectable=1;" vertex="1" parent="1">
          <mxGeometry x="160" y="478" width="90" height="40" as="geometry" />
        </mxCell>
        <mxCell id="f3NPworkl2Eo52ftp_1T-39" value="&lt;u&gt;A6&lt;/u&gt;" style="rounded=0;whiteSpace=wrap;html=1;movable=1;resizable=1;rotatable=1;deletable=1;editable=1;locked=0;connectable=1;" vertex="1" parent="1">
          <mxGeometry x="250" y="478" width="90" height="40" as="geometry" />
        </mxCell>
        <mxCell id="f3NPworkl2Eo52ftp_1T-40" value="A7" style="rounded=0;whiteSpace=wrap;html=1;movable=1;resizable=1;rotatable=1;deletable=1;editable=1;locked=0;connectable=1;" vertex="1" parent="1">
          <mxGeometry x="340" y="478" width="90" height="40" as="geometry" />
        </mxCell>
        <mxCell id="f3NPworkl2Eo52ftp_1T-41" value="" style="endArrow=classic;html=1;rounded=0;exitX=0;exitY=0.5;exitDx=0;exitDy=0;entryX=0;entryY=0.5;entryDx=0;entryDy=0;" edge="1" parent="1" source="f3NPworkl2Eo52ftp_1T-38" target="f3NPworkl2Eo52ftp_1T-27">
          <mxGeometry width="50" height="50" relative="1" as="geometry">
            <mxPoint x="190" y="320" as="sourcePoint" />
            <mxPoint x="100" y="500" as="targetPoint" />
            <Array as="points">
              <mxPoint x="100" y="500" />
              <mxPoint x="100" y="370" />
              <mxPoint x="100" y="260" />
            </Array>
          </mxGeometry>
        </mxCell>
        <mxCell id="f3NPworkl2Eo52ftp_1T-42" value="E5" style="text;html=1;align=center;verticalAlign=middle;resizable=0;points=[];autosize=1;strokeColor=none;fillColor=none;" vertex="1" parent="1">
          <mxGeometry x="160" y="530" width="40" height="30" as="geometry" />
        </mxCell>
        <mxCell id="f3NPworkl2Eo52ftp_1T-43" value="&lt;u&gt;A8&lt;/u&gt;" style="rounded=0;whiteSpace=wrap;html=1;movable=1;resizable=1;rotatable=1;deletable=1;editable=1;locked=0;connectable=1;" vertex="1" parent="1">
          <mxGeometry x="160" y="560" width="90" height="40" as="geometry" />
        </mxCell>
        <mxCell id="f3NPworkl2Eo52ftp_1T-45" value="&lt;u&gt;A14&lt;/u&gt;" style="rounded=0;whiteSpace=wrap;html=1;movable=1;resizable=1;rotatable=1;deletable=1;editable=1;locked=0;connectable=1;" vertex="1" parent="1">
          <mxGeometry x="250" y="560" width="90" height="40" as="geometry" />
        </mxCell>
        <mxCell id="f3NPworkl2Eo52ftp_1T-46" value="A15" style="rounded=0;whiteSpace=wrap;html=1;movable=1;resizable=1;rotatable=1;deletable=1;editable=1;locked=0;connectable=1;" vertex="1" parent="1">
          <mxGeometry x="340" y="560" width="90" height="40" as="geometry" />
        </mxCell>
        <mxCell id="f3NPworkl2Eo52ftp_1T-47" value="" style="endArrow=classic;html=1;rounded=0;exitX=0;exitY=0.5;exitDx=0;exitDy=0;entryX=0;entryY=0.5;entryDx=0;entryDy=0;" edge="1" parent="1">
          <mxGeometry width="50" height="50" relative="1" as="geometry">
            <mxPoint x="160" y="578" as="sourcePoint" />
            <mxPoint x="160" y="340" as="targetPoint" />
            <Array as="points">
              <mxPoint x="120" y="578" />
              <mxPoint x="120" y="520" />
              <mxPoint x="120" y="390" />
              <mxPoint x="120" y="340" />
            </Array>
          </mxGeometry>
        </mxCell>
        <mxCell id="f3NPworkl2Eo52ftp_1T-48" value="A8" style="rounded=0;whiteSpace=wrap;html=1;movable=1;resizable=1;rotatable=1;deletable=1;editable=1;locked=0;connectable=1;" vertex="1" parent="1">
          <mxGeometry x="340" y="160" width="90" height="40" as="geometry" />
        </mxCell>
        <mxCell id="f3NPworkl2Eo52ftp_1T-49" value="" style="endArrow=classic;html=1;rounded=0;exitX=1;exitY=0.5;exitDx=0;exitDy=0;entryX=0.5;entryY=1;entryDx=0;entryDy=0;" edge="1" parent="1" source="f3NPworkl2Eo52ftp_1T-48">
          <mxGeometry width="50" height="50" relative="1" as="geometry">
            <mxPoint x="425" y="180" as="sourcePoint" />
            <mxPoint x="200" y="360" as="targetPoint" />
            <Array as="points">
              <mxPoint x="460" y="180" />
              <mxPoint x="460" y="270" />
              <mxPoint x="460" y="380" />
              <mxPoint x="200" y="380" />
            </Array>
          </mxGeometry>
        </mxCell>
        <mxCell id="f3NPworkl2Eo52ftp_1T-50" value="A1" style="rounded=0;whiteSpace=wrap;html=1;movable=1;resizable=1;rotatable=1;deletable=1;editable=1;locked=0;connectable=1;" vertex="1" parent="1">
          <mxGeometry x="340" y="240" width="90" height="40" as="geometry" />
        </mxCell>
        <mxCell id="f3NPworkl2Eo52ftp_1T-51" value="" style="endArrow=classic;html=1;rounded=0;exitX=0.5;exitY=0;exitDx=0;exitDy=0;entryX=0.5;entryY=1;entryDx=0;entryDy=0;" edge="1" parent="1" source="f3NPworkl2Eo52ftp_1T-50" target="f3NPworkl2Eo52ftp_1T-24">
          <mxGeometry width="50" height="50" relative="1" as="geometry">
            <mxPoint x="250" y="420" as="sourcePoint" />
            <mxPoint x="300" y="370" as="targetPoint" />
            <Array as="points">
              <mxPoint x="385" y="220" />
              <mxPoint x="205" y="220" />
            </Array>
          </mxGeometry>
        </mxCell>
        <mxCell id="f3NPworkl2Eo52ftp_1T-52" value="A14" style="rounded=0;whiteSpace=wrap;html=1;movable=1;resizable=1;rotatable=1;deletable=1;editable=1;locked=0;connectable=1;" vertex="1" parent="1">
          <mxGeometry x="250" y="398" width="90" height="40" as="geometry" />
        </mxCell>
        <mxCell id="f3NPworkl2Eo52ftp_1T-53" value="A17" style="rounded=0;whiteSpace=wrap;html=1;movable=1;resizable=1;rotatable=1;deletable=1;editable=1;locked=0;connectable=1;" vertex="1" parent="1">
          <mxGeometry x="340" y="398" width="90" height="40" as="geometry" />
        </mxCell>
        <mxCell id="f3NPworkl2Eo52ftp_1T-54" value="" style="endArrow=classic;html=1;rounded=0;exitX=0.5;exitY=1;exitDx=0;exitDy=0;entryX=0.5;entryY=1;entryDx=0;entryDy=0;" edge="1" parent="1" source="f3NPworkl2Eo52ftp_1T-52" target="f3NPworkl2Eo52ftp_1T-45">
          <mxGeometry width="50" height="50" relative="1" as="geometry">
            <mxPoint x="250" y="420" as="sourcePoint" />
            <mxPoint x="300" y="370" as="targetPoint" />
            <Array as="points">
              <mxPoint x="295" y="460" />
              <mxPoint x="460" y="460" />
              <mxPoint x="540" y="460" />
              <mxPoint x="540" y="520" />
              <mxPoint x="540" y="620" />
              <mxPoint x="460" y="620" />
              <mxPoint x="295" y="620" />
            </Array>
          </mxGeometry>
        </mxCell>
        <mxCell id="f3NPworkl2Eo52ftp_1T-55" value="A13" style="rounded=0;whiteSpace=wrap;html=1;movable=1;resizable=1;rotatable=1;deletable=1;editable=1;locked=0;connectable=1;" vertex="1" parent="1">
          <mxGeometry x="430" y="560" width="90" height="40" as="geometry" />
        </mxCell>
        <mxCell id="f3NPworkl2Eo52ftp_1T-56" value="R4" style="text;html=1;align=center;verticalAlign=middle;resizable=0;points=[];autosize=1;strokeColor=none;fillColor=none;" vertex="1" parent="1">
          <mxGeometry x="160" y="610" width="40" height="30" as="geometry" />
        </mxCell>
        <mxCell id="f3NPworkl2Eo52ftp_1T-57" value="&lt;u&gt;A4&lt;/u&gt;" style="rounded=0;whiteSpace=wrap;html=1;movable=1;resizable=1;rotatable=1;deletable=1;editable=1;locked=0;connectable=1;" vertex="1" parent="1">
          <mxGeometry x="160" y="640" width="90" height="40" as="geometry" />
        </mxCell>
        <mxCell id="f3NPworkl2Eo52ftp_1T-58" value="&lt;u&gt;A8&lt;/u&gt;" style="rounded=0;whiteSpace=wrap;html=1;movable=1;resizable=1;rotatable=1;deletable=1;editable=1;locked=0;connectable=1;" vertex="1" parent="1">
          <mxGeometry x="250" y="640" width="90" height="40" as="geometry" />
        </mxCell>
        <mxCell id="f3NPworkl2Eo52ftp_1T-59" value="" style="endArrow=classic;html=1;rounded=0;exitX=0;exitY=0.5;exitDx=0;exitDy=0;" edge="1" parent="1" source="f3NPworkl2Eo52ftp_1T-57">
          <mxGeometry width="50" height="50" relative="1" as="geometry">
            <mxPoint x="280" y="440" as="sourcePoint" />
            <mxPoint x="160" y="500" as="targetPoint" />
            <Array as="points">
              <mxPoint x="140" y="660" />
              <mxPoint x="140" y="590" />
              <mxPoint x="140" y="500" />
            </Array>
          </mxGeometry>
        </mxCell>
        <mxCell id="f3NPworkl2Eo52ftp_1T-60" value="" style="endArrow=classic;html=1;rounded=0;exitX=0.5;exitY=0;exitDx=0;exitDy=0;entryX=0.5;entryY=1;entryDx=0;entryDy=0;" edge="1" parent="1">
          <mxGeometry width="50" height="50" relative="1" as="geometry">
            <mxPoint x="280" y="640" as="sourcePoint" />
            <mxPoint x="190" y="600" as="targetPoint" />
            <Array as="points">
              <mxPoint x="280" y="620" />
              <mxPoint x="190" y="620" />
            </Array>
          </mxGeometry>
        </mxCell>
        <mxCell id="f3NPworkl2Eo52ftp_1T-61" value="A3" style="text;html=1;align=center;verticalAlign=middle;resizable=0;points=[];autosize=1;strokeColor=none;fillColor=none;" vertex="1" parent="1">
          <mxGeometry x="160" y="688" width="40" height="30" as="geometry" />
        </mxCell>
        <mxCell id="f3NPworkl2Eo52ftp_1T-62" value="&lt;u&gt;A1&lt;/u&gt;" style="rounded=0;whiteSpace=wrap;html=1;movable=1;resizable=1;rotatable=1;deletable=1;editable=1;locked=0;connectable=1;" vertex="1" parent="1">
          <mxGeometry x="160" y="718" width="90" height="40" as="geometry" />
        </mxCell>
        <mxCell id="f3NPworkl2Eo52ftp_1T-63" value="&lt;u&gt;A3&lt;/u&gt;" style="rounded=0;whiteSpace=wrap;html=1;movable=1;resizable=1;rotatable=1;deletable=1;editable=1;locked=0;connectable=1;" vertex="1" parent="1">
          <mxGeometry x="250" y="718" width="90" height="40" as="geometry" />
        </mxCell>
        <mxCell id="f3NPworkl2Eo52ftp_1T-64" value="" style="endArrow=classic;html=1;rounded=0;exitX=0;exitY=0.5;exitDx=0;exitDy=0;entryX=0;entryY=0.5;entryDx=0;entryDy=0;" edge="1" parent="1" source="f3NPworkl2Eo52ftp_1T-62" target="f3NPworkl2Eo52ftp_1T-24">
          <mxGeometry width="50" height="50" relative="1" as="geometry">
            <mxPoint x="240" y="440" as="sourcePoint" />
            <mxPoint x="290" y="390" as="targetPoint" />
            <Array as="points">
              <mxPoint x="60" y="740" />
              <mxPoint x="60" y="460" />
              <mxPoint x="60" y="180" />
            </Array>
          </mxGeometry>
        </mxCell>
      </root>
    </mxGraphModel>
  </diagram>
</mxfile>
